<svg width="159" height="45" viewBox="0 0 159 45" fill="none" xmlns="http://www.w3.org/2000/svg">
<rect y="10" width="4.53125" height="4.53125" fill="#002A42"/>
<rect x="24.4688" y="11.8125" width="4.53125" height="4.53125" fill="#002A42"/>
<rect x="19.0312" y="10" width="5.4375" height="4.53125" fill="#002A42"/>
<rect x="9.96875" y="11.8125" width="4.53125" height="4.53125" fill="#002A42"/>
<rect x="14.5" y="10" width="4.53125" height="4.53125" fill="#002A42"/>
<rect x="4.53125" y="11.8125" width="5.4375" height="4.53125" fill="#002A42"/>
<rect y="19.0625" width="4.53125" height="4.53125" fill="#002A42"/>
<rect x="24.4688" y="20.875" width="4.53125" height="4.53125" fill="#002A42"/>
<rect x="19.0312" y="19.0625" width="5.4375" height="4.53125" fill="#002A42"/>
<rect x="9.96875" y="20.875" width="4.53125" height="4.53125" fill="#002A42"/>
<rect x="14.5" y="19.0625" width="4.53125" height="4.53125" fill="#002A42"/>
<rect x="4.53125" y="20.875" width="5.4375" height="4.53125" fill="#002A42"/>
<rect y="28.125" width="4.53125" height="4.53125" fill="#002A42"/>
<rect x="24.4688" y="29.9375" width="4.53125" height="4.53125" fill="#002A42"/>
<rect x="19.0312" y="28.125" width="5.4375" height="4.53125" fill="#002A42"/>
<rect x="9.96875" y="29.9375" width="4.53125" height="4.53125" fill="#002A42"/>
<rect x="14.5" y="28.125" width="4.53125" height="4.53125" fill="#002A42"/>
<rect x="4.53125" y="29.9375" width="5.4375" height="4.53125" fill="#002A42"/>
<path d="M97.5003 31.1772C96.8532 31.1772 96.3112 30.975 95.8744 30.5705C95.4537 30.166 95.1868 29.6241 95.0735 28.9445H94.9279C94.7338 29.7697 94.305 30.4006 93.6417 30.8375C92.9784 31.2581 92.1613 31.4684 91.1906 31.4684C89.9125 31.4684 88.9336 31.1287 88.2541 30.4492C87.5746 29.7697 87.2349 28.8717 87.2349 27.7554C87.2349 26.4126 87.7202 25.4176 88.691 24.7704C89.6779 24.1071 91.0126 23.7754 92.6952 23.7754H94.7095V22.9746C94.7095 22.3598 94.5477 21.8744 94.2241 21.5185C93.9005 21.1463 93.3586 20.9603 92.5981 20.9603C91.8863 20.9603 91.32 21.114 90.8994 21.4214C90.4787 21.7288 90.1309 22.0766 89.8558 22.4649L87.7202 20.572C88.238 19.8116 88.8851 19.2211 89.6617 18.8004C90.4545 18.3636 91.5223 18.1452 92.8651 18.1452C94.6771 18.1452 96.0362 18.5416 96.9422 19.3343C97.8482 20.1271 98.3012 21.2839 98.3012 22.8047V28.3864H99.4903V31.1772H97.5003ZM92.5253 28.9688C93.124 28.9688 93.6336 28.8394 94.0542 28.5805C94.4911 28.3217 94.7095 27.901 94.7095 27.3186V25.8139H92.9622C91.5546 25.8139 90.8508 26.2912 90.8508 27.2458V27.6098C90.8508 28.079 90.9964 28.4268 91.2877 28.6533C91.5789 28.8636 91.9914 28.9688 92.5253 28.9688Z" fill="#002A42"/>
<path d="M83.4215 17.0774C82.6935 17.0774 82.1596 16.9156 81.8198 16.592C81.4963 16.2523 81.3345 15.8235 81.3345 15.3058V14.7719C81.3345 14.2542 81.4963 13.8335 81.8198 13.5099C82.1596 13.1702 82.6935 13.0003 83.4215 13.0003C84.1496 13.0003 84.6754 13.1702 84.999 13.5099C85.3387 13.8335 85.5086 14.2542 85.5086 14.7719V15.3058C85.5086 15.8235 85.3387 16.2523 84.999 16.592C84.6754 16.9156 84.1496 17.0774 83.4215 17.0774ZM81.6257 18.4364H85.2174V31.1772H81.6257V18.4364Z" fill="#002A42"/>
<path d="M75.1604 29.0416H75.0391C74.942 29.3814 74.7883 29.7049 74.578 30.0123C74.3677 30.3036 74.1088 30.5624 73.8014 30.7889C73.5102 30.9993 73.1704 31.161 72.7822 31.2743C72.41 31.4037 72.0217 31.4684 71.6173 31.4684C69.9994 31.4684 68.7779 30.9022 67.9528 29.7697C67.1277 28.621 66.7151 26.9626 66.7151 24.7947C66.7151 22.6267 67.1277 20.9765 67.9528 19.8439C68.7779 18.7114 69.9994 18.1452 71.6173 18.1452C72.4424 18.1452 73.1704 18.3717 73.8014 18.8247C74.4486 19.2777 74.8611 19.8601 75.0391 20.572H75.1604V13.2187H78.7521V31.1772H75.1604V29.0416ZM72.8064 28.5562C73.4859 28.5562 74.0441 28.3945 74.4809 28.0709C74.9339 27.7311 75.1604 27.27 75.1604 26.6876V22.926C75.1604 22.3436 74.9339 21.8906 74.4809 21.567C74.0441 21.2272 73.4859 21.0574 72.8064 21.0574C72.1269 21.0574 71.5607 21.3 71.1076 21.7854C70.6708 22.2546 70.4524 22.8937 70.4524 23.7026V25.911C70.4524 26.72 70.6708 27.3671 71.1076 27.8525C71.5607 28.3217 72.1269 28.5562 72.8064 28.5562Z" fill="#002A42"/>
<path d="M59.5192 31.4684C58.5484 31.4684 57.6829 31.3147 56.9225 31.0073C56.1621 30.6838 55.5149 30.2389 54.981 29.6726C54.4633 29.0902 54.0669 28.3864 53.7919 27.5613C53.533 26.7361 53.4036 25.8139 53.4036 24.7947C53.4036 23.7916 53.533 22.8856 53.7919 22.0766C54.0507 21.2515 54.4309 20.5477 54.9325 19.9653C55.4502 19.3829 56.0812 18.9379 56.8254 18.6305C57.5696 18.307 58.419 18.1452 59.3736 18.1452C60.4252 18.1452 61.3231 18.3231 62.0673 18.6791C62.8277 19.035 63.4425 19.5123 63.9117 20.1109C64.3971 20.7095 64.7449 21.4052 64.9553 22.198C65.1818 22.9746 65.295 23.7916 65.295 24.6491V25.7169H57.1166V25.911C57.1166 26.7523 57.3431 27.4237 57.7961 27.9253C58.2491 28.4106 58.961 28.6533 59.9317 28.6533C60.676 28.6533 61.2827 28.5077 61.7518 28.2165C62.221 27.9091 62.6579 27.5451 63.0623 27.1244L64.8582 29.3571C64.2919 30.0204 63.5477 30.5382 62.6255 30.9103C61.7195 31.2824 60.684 31.4684 59.5192 31.4684ZM59.4464 20.7904C58.7183 20.7904 58.144 21.0331 57.7233 21.5185C57.3188 21.9876 57.1166 22.6186 57.1166 23.4114V23.6055H61.582V23.3871C61.582 22.6105 61.404 21.9876 61.0481 21.5185C60.7083 21.0331 60.1744 20.7904 59.4464 20.7904Z" fill="#002A42"/>
<path d="M47.668 20.0624H47.5952L46.3575 22.5377L43.0571 28.532L39.8294 22.562L38.5432 19.8925H38.4704V31.1772H35V14.238H38.9072L43.0571 22.1737H43.1056L47.2069 14.238H51.1384V31.1772H47.668V20.0624Z" fill="#002A42"/>
<path d="M106.994 31.4583V29.0384H104.49V13H108.104V27.5927H114.536V25.1519H118.172V29.0488H115.636V31.4687H106.994V31.4583ZM122.697 31.4583V29.0384H120.193V20.3121H122.697V17.8712H131.34V20.3121H133.875V27.5927H136.41V31.4583H132.775V29.0384H131.35V31.4583H122.708H122.697ZM123.808 27.5927H130.24V21.7368H123.808V27.5927ZM140.401 31.4583V29.0384H137.897V13H141.512V17.8607H149.044V20.3016H151.579V29.0279H149.044V31.4478H140.401V31.4583ZM141.512 27.5927H147.933V21.7368H141.512V27.5927ZM154.47 31.144V27.247H158.084V31.144H154.47Z" fill="#FF3651"/>
</svg>
